<?xml version="1.0" encoding="UTF-8"?>
<svg id="_레이어_2" data-name="레이어 2" xmlns="http://www.w3.org/2000/svg" viewBox="0 0 95.54 224.49">
  <defs>
    <style>
      .cls-1 {
        fill: #33333e;
      }

      .cls-2 {
        stroke-width: 1.03px;
      }

      .cls-2, .cls-3 {
        fill: #ff4589;
      }

      .cls-2, .cls-3, .cls-4, .cls-5, .cls-6 {
        stroke: #33333e;
        stroke-miterlimit: 10;
      }

      .cls-3 {
        stroke-width: 1.01px;
      }

      .cls-4 {
        stroke-width: 1.03px;
      }

      .cls-4, .cls-6 {
        fill: #fff;
        stroke-linecap: round;
      }

      .cls-5 {
        fill: #ffedd2;
        stroke-width: 1.07px;
      }

      .cls-6 {
        stroke-width: .82px;
      }
    </style>
  </defs>
  <g id="OBJECTS">
    <g>
      <path class="cls-5" d="m42.95,185.51c.21-4.62.02-9.57.05-12.9.07-7.97-.55-9.02,1.06-15.6,2.62-8.44,3.49-28.18,3.64-36.66.22-12.57-18.55-14.09-18.55-14.09,0,0-1.78,23.11,0,35.02.64,4.3,1.92,13.12,2.84,15.75-.88,4.44-3.15,8.28-3.42,12.91-.35,5.96,1.21,11.9,3.05,17.52.72,2.2,1.55,4.53,1.49,6.87-.05,2.03-.76,3.95-.77,6.01-.02,4.16-2.77,12.13-3.31,15.25-.53,3.12,6.72,7.97,9.85,8.32,3.14.35,3.6-2.77,4.75-5.89s-.53-8.32-.9-13.52c-.3-4.23.06-15.1.2-19Z"/>
      <path class="cls-5" d="m52.47,185.51c-.21-4.62-.02-9.57-.05-12.9-.07-7.97.55-9.02-1.06-15.6-2.62-8.44-3.49-28.18-3.64-36.66-.22-12.57,18.55-14.09,18.55-14.09,0,0,1.78,23.11,0,35.02-.64,4.3-1.92,13.12-2.84,15.75,3.04,8.56,4.43,15.59,1.97,24.55-1.44,5.25-3.29,10.54-3.02,15.98.27,5.53,2.71,10.71,3.71,16.16.2,1.07.34,2.2,0,3.24-.3.96-.98,1.76-1.7,2.47-1.76,1.74-3.89,3.12-6.2,4.01-1.06.41-2.27.72-3.32.27-.96-.42-1.56-1.39-1.99-2.35-2.87-6.45-.21-13.23-.1-19.87.08-5.32-.06-10.67-.31-15.99Z"/>
      <path class="cls-5" d="m87.08,71.41c-7.49-8.11-21.17-20.5-25.11-21.51-3.93-1-8.24-2.46-9.23-3.1-.99-.64-1.07-3.01-1.07-4.92s.38-4.33.38-4.33h-8.56s.38,2.41.38,4.33-.08,4.28-1.07,4.92c-.99.64-5.3,2.1-9.23,3.1s-17.61,13.4-25.11,21.51c-7.49,8.11-9.65,12.3-6.56,15.22,3.09,2.92,24.83,13.49,24.83,13.49,0,0-1.97,1.18-2.34,3.37-.37,2.19.75,2.83-.94,4.28-1.69,1.46-6,1.09-6.37,2.28-.37,1.18,2.66.73,5.13,1.55,2.46.82,3.77-1.82,5.46-2.64,1.69-.82,4.97-4.28,5.06-9.02.09-4.74.75-4.01-4.31-7.75-5.06-3.74-11.15-8.57-11.15-8.57l15.27-13.76h30.46l15.27,13.76s-6.09,4.83-11.15,8.57c-5.06,3.74-4.4,3.01-4.31,7.75.09,4.74,3.37,8.2,5.06,9.02,1.69.82,3,3.46,5.46,2.64,2.46-.82,5.5-.36,5.13-1.55-.37-1.18-4.68-.82-6.37-2.28-1.69-1.46-.56-2.1-.94-4.28-.37-2.19-2.34-3.37-2.34-3.37,0,0,21.74-10.57,24.83-13.49,3.09-2.92.94-7.11-6.56-15.22Z"/>
      <g>
        <ellipse class="cls-1" cx="18.39" cy="16.56" rx="13.96" ry="15.94"/>
        <path class="cls-5" d="m26.8,23.1s-4.74-.61-4.61,4.79c.13,5.41,5.08,6.33,6.63,5.43,0,0,.84-4.2-2.01-10.22Z"/>
        <path class="cls-5" d="m69.05,23.1s4.74-.61,4.61,4.79c-.13,5.41-5.08,6.33-6.63,5.43,0,0-.84-4.2,2.01-10.22Z"/>
        <ellipse class="cls-5" cx="47.91" cy="24.87" rx="21.2" ry="19.44"/>
        <path class="cls-5" d="m35.65,22.42s.58,3.16,3.47,3.16,3.03-3.16,3.03-3.16"/>
        <path class="cls-5" d="m53.11,22.42s.58,3.16,3.47,3.16,3.03-3.16,3.03-3.16"/>
        <path class="cls-5" d="m42.75,28.35s1.07,3.03,5.3,3.03,4.61-3.03,4.61-3.03"/>
        <path class="cls-1" d="m26.8,23.1s7.45,2.48,17.99-2.13c10.54-4.61,12-13.75,12-13.75,0,0,1.15,14.39,12.25,15.88,0,0,1.3-.06,1.94.21,0,0,3.56-12.33-4.06-17.88C59.3-.12,41.83-2.92,31.78,4.49c-10.05,7.41-4.98,18.61-4.98,18.61Z"/>
      </g>
      <path class="cls-1" d="m43.84,43.49s4.38,1.03,7.82,0l.03,2.5s-1.29.58-3.88.58-3.97-.6-3.97-.6v-2.48Z"/>
      <path class="cls-6" d="m78.27,83.62s4.17-.53,6.76.4"/>
      <path class="cls-6" d="m17.27,83.62s-3.38-.96-6.07,0"/>
      <path class="cls-5" d="m66.26,66.46c-8.21-3.09-18.55-5.27-18.55-5.27,0,0-10.34,2.19-18.55,5.27,0,0,.26,3.32,0,17.94-.26,14.62,0,24.65,0,24.65,0,0,13.68,5.65,18.55,14.09,4.87-8.44,18.55-14.09,18.55-14.09,0,0,.26-10.03,0-24.65-.26-14.62,0-17.94,0-17.94Z"/>
      <path class="cls-3" d="m29.05,96.14s8.69,2.13,18.8,2.13,18.51-2.03,18.51-2.03l-.11,12.81s-13.52,5.44-18.55,14.09c0,0-5.96-9.68-18.55-14.09l-.11-12.91Z"/>
      <path class="cls-4" d="m48.48,93.87s.84,1.8,0,3.33"/>
      <g>
        <path class="cls-2" d="m29.16,72.29s4.69,2.36,18.61,2.36,18.38-1.84,18.38-1.84l.49-8.23s-9.15-4.99-18.75-5.46c-9.6-.46-18.69,5.75-18.69,5.75l-.03,7.42Z"/>
        <path class="cls-1" d="m29.16,72.29l.03-2.97s8.06.91,17.8.91,19.38-.91,19.38-.91v2.97s-7.98,2.36-18.61,2.36-18.61-2.36-18.61-2.36Z"/>
      </g>
    </g>
  </g>
</svg>