<?xml version="1.0" encoding="UTF-8"?>
<svg id="_레이어_2" data-name="레이어 2" xmlns="http://www.w3.org/2000/svg" viewBox="0 0 566.93 97.23">
  <defs>
    <style>
      .cls-1 {
        fill: #ff8e9f;
      }
    </style>
  </defs>
  <g id="_레이어_1-2" data-name="레이어 1">
    <path class="cls-1" d="m124.05,8.6h18.2v70.29h-18.2v-25.64h-15.95v25.64h-18.2V8.6h18.2v27.94h15.95V8.6Zm48.49,15.31c8.76,0,14.84,1.92,18.25,5.76,3.41,3.84,5.11,10.67,5.11,20.5s-1.67,16.57-5.02,20.21c-3.35,3.65-9.42,5.47-18.2,5.47s-14.9-1.9-18.35-5.71c-3.44-3.81-5.16-10.58-5.16-20.31s1.7-16.48,5.12-20.26c3.41-3.78,9.49-5.67,18.25-5.67m4.46,36.49c.47-1.09.7-4.46.7-10.13s-.23-9.17-.7-10.51c-.47-1.34-1.99-2.02-4.55-2.02s-4.05.64-4.46,1.92c-.41,1.28-.61,4.71-.61,10.28s.27,8.98.8,10.23c.53,1.25,2.02,1.87,4.46,1.87s3.89-.54,4.36-1.63m70.61-31.21c-.94-1.92-2.41-3.34-4.41-4.27-2-.93-4.38-1.39-7.13-1.39s-5.05.32-6.9.96c-1.85.64-3.19,1.28-4.04,1.92-.84.64-1.96,1.63-3.33,2.98l-3-4.99h-15.2v50.99h18.2v-34.47c1-2.37,3.28-3.55,6.85-3.55,1.06,0,1.84.35,2.35,1.06.5.71.75,2.02.75,3.94v33.03h18.21v-32.65c0-3.07-.16-5.62-.47-7.64-.31-2.02-.94-3.98-1.88-5.91m50.2,24.39c-2.5,2.05-6.16,3.07-10.98,3.07h-11.64c0,1.92.44,3.43,1.32,4.51.56.71,1.88,1.06,3.94,1.06l6.1-.1c4.69,0,9.38-.35,14.07-1.06v12.1c-3.5,1.79-9.98,2.69-19.42,2.69h-7.79c-6.13,0-10.4-2.08-12.81-6.24-2.41-4.16-3.61-10.31-3.61-18.44s.73-14.03,2.2-17.72c1.47-3.68,3.67-6.18,6.62-7.49,2.94-1.31,6.98-1.97,12.1-1.97s8.98.19,11.55.58c2.56.38,4.85,1.25,6.85,2.59,2,1.34,3.38,3.26,4.13,5.76.75,2.5,1.13,6.05,1.13,10.66s-1.25,7.94-3.76,9.99m-15.2-9.6c.5-.58.75-1.57.75-2.98s-.17-2.45-.52-3.12c-.34-.67-1.41-1.01-3.19-1.01s-2.97.43-3.57,1.3c-.6.86-.89,2.77-.89,5.71v.96h5.44c.81,0,1.47-.29,1.97-.86m51.71,16.42c-2.25-.13-3.6-1.37-4.04-3.74l-5.72-32.26h-18.86l7.79,36.01c2.19,9.99,8.1,14.98,17.74,14.98l-4.49,21.54s17.46,3,20.17-9.8c2.71-12.79,12.37-62.73,12.37-62.73h-18.49l-6.47,36.01Zm62.12-36.78c6.44,0,10.74,2,12.9,6,2.16,4,3.24,10.71,3.24,20.12s-1.28,16.13-3.85,20.17c-2.57,4.03-6.66,6.05-12.29,6.05-2.57,0-4.72-.43-6.47-1.3-1.75-.86-3.69-2.19-5.82-3.98l-2.72,4.7h-15.58V0h18.2v26.5c3.57-1.92,7.7-2.88,12.39-2.88m-3,35.05c.62-1.47.94-4.69.94-9.65s-.31-8.21-.94-9.75c-.62-1.54-1.69-2.3-3.19-2.3-3.19,0-5.22.48-6.1,1.44v20.36c.81,1.41,2.84,2.11,6.1,2.11,1.5,0,2.57-.74,3.19-2.21m66.99-5.09c-2.5,2.05-6.16,3.07-10.98,3.07h-11.64c0,1.92.44,3.43,1.31,4.51.56.71,1.88,1.06,3.94,1.06l6.1-.1c4.69,0,9.38-.35,14.07-1.06v12.1c-3.5,1.79-9.98,2.69-19.42,2.69h-7.79c-6.13,0-10.4-2.08-12.81-6.24-2.41-4.16-3.61-10.31-3.61-18.44s.73-14.03,2.21-17.72c1.47-3.68,3.67-6.18,6.61-7.49,2.94-1.31,6.98-1.97,12.1-1.97s8.98.19,11.54.58c2.56.38,4.85,1.25,6.85,2.59,2,1.34,3.38,3.26,4.13,5.76.75,2.5,1.13,6.05,1.13,10.66s-1.25,7.94-3.76,9.99m-15.2-9.6c.5-.58.75-1.57.75-2.98s-.18-2.45-.52-3.12c-.34-.67-1.41-1.01-3.19-1.01s-2.97.43-3.57,1.3c-.59.86-.89,2.77-.89,5.71v.96h5.44c.81,0,1.47-.29,1.97-.86m66.34,9.6c-2.5,2.05-6.16,3.07-10.98,3.07h-11.64c0,1.92.44,3.43,1.31,4.51.56.71,1.88,1.06,3.94,1.06l6.1-.1c4.69,0,9.38-.35,14.08-1.06v12.1c-3.51,1.79-9.98,2.69-19.42,2.69h-7.79c-6.13,0-10.4-2.08-12.81-6.24-2.41-4.16-3.61-10.31-3.61-18.44s.73-14.03,2.2-17.72c1.47-3.68,3.67-6.18,6.61-7.49,2.94-1.31,6.98-1.97,12.11-1.97s8.98.19,11.54.58c2.56.38,4.85,1.25,6.85,2.59,2,1.34,3.38,3.26,4.13,5.76.75,2.5,1.13,6.05,1.13,10.66s-1.25,7.94-3.75,9.99m-15.2-9.6c.5-.58.75-1.57.75-2.98s-.18-2.45-.52-3.12c-.34-.67-1.41-1.01-3.19-1.01s-2.97.43-3.56,1.3c-.59.86-.89,2.77-.89,5.71v.96h5.44c.81,0,1.47-.29,1.97-.86m67.23,1.97c-2.22-2.53-5.8-3.79-10.74-3.79h-10.51c-.63-.13-.94-.64-.94-1.54v-.57c0-.58.11-1.01.33-1.3.22-.29.8-.43,1.73-.43h21.02v-10.95c-.94-1.15-2.93-2.02-5.96-2.59-3.03-.58-10.49-.86-22.38-.86-4.5,0-7.79,1.34-9.85,4.03-2.07,2.69-3.1,6.21-3.1,10.56v4.42c0,4.8,1.33,8.44,3.99,10.9,2.66,2.47,6.27,3.7,10.84,3.7h9.01c.69,0,1.14.13,1.36.38.22.25.33.7.33,1.34v.48c0,.58-.09.99-.28,1.25-.19.26-.66.39-1.41.39h-21.77v10.95c.94,1.15,2.89,2,5.87,2.54,2.97.54,5.77.85,8.4.91s5.63.1,9.01.1h6.19c3.38,0,6.26-1.15,8.63-3.46,2.38-2.3,3.57-5.89,3.57-10.75v-5.67c0-4.16-1.11-7.5-3.33-10.03m-521.55,2.87c4.97-4.97,4.97-13.03,0-18-4.97-4.97-13.03-4.97-18,0-4.96,4.96-4.97,13-.02,17.97.02,0,.04,0,.04,0,0,0,0,.01,0,.04,4.97,4.95,13.01,4.94,17.97-.02m20.32-20.33c4.97-4.97,4.97-13.03,0-17.99-4.97-4.97-13.03-4.97-17.99,0-4.97,4.97-2.3,20.29-2.3,20.29,0,0,15.32,2.67,20.29-2.3m-38.34,20.3c-.83-.14-15.47-2.48-20.3,2.35-4.97,4.97-4.97,13.03,0,18,4.97,4.97,13.02,4.97,17.99,0,4.83-4.83,2.49-19.47,2.35-20.3,0,0-.01-.01-.02-.02,0,0-.01-.02-.02-.02m20.35,2.35c-4.97,4.97-4.97,13.03,0,18,4.97,4.97,24.31,6.32,24.31,6.32,0,0-1.35-19.34-6.32-24.31-4.97-4.97-13.02-4.97-17.99,0m-22.66-22.65c4.97-4.97,4.97-13.03,0-18-4.97-4.97-13.02-4.97-17.99,0-4.97,4.97-4.97,13.03,0,18,4.97,4.97,13.02,4.97,17.99,0"/>
  </g>
</svg>