<svg xmlns="http://www.w3.org/2000/svg" width="62.74" height="62.349" fill="none" overflow="visible"><g><defs><linearGradient id="idid_xMLtG9DfCg-994962297" x1="0" x2="1" y1="0.000001160819101508892" y2="0.9999988391808985"><stop offset="0" stop-color="rgb(255,155,140)" stop-opacity="1"></stop><stop offset="1" stop-color="rgb(253,77,134)" stop-opacity="1"></stop></linearGradient></defs><path d="M 46.752 39.352 L 43.399 35.999 C 45.76 32.259 47.01 27.926 47.005 23.504 C 47.005 10.544 36.463 0 23.504 0 C 10.544 0 0 10.544 0 23.505 C 0 36.463 10.544 47.005 23.504 47.005 C 27.927 47.01 32.26 45.76 36 43.399 L 39.352 46.749 L 45.676 52.875 L 52 59 C 55.301 62.301 57.199 63.801 60.5 60.5 C 63.801 57.199 63.301 55.801 60 52.5 Z M 4.113 23.505 C 4.113 12.812 12.812 4.113 23.505 4.113 C 34.198 4.113 42.893 12.812 42.893 23.505 C 42.893 34.197 34.195 42.892 23.504 42.892 C 12.812 42.892 4.113 34.195 4.113 23.505 Z M 14.848 11.941 C 15.651 12.744 15.651 14.045 14.848 14.848 C 11.802 17.913 10.587 22.351 11.645 26.541 C 11.838 27.257 11.631 28.021 11.102 28.541 C 10.574 29.061 9.806 29.257 9.093 29.052 C 8.381 28.848 7.833 28.276 7.66 27.555 C 6.247 21.96 7.872 16.033 11.94 11.941 C 12.743 11.138 14.045 11.138 14.848 11.941 Z" fill="url(#idid_xMLtG9DfCg-994962297)"></path></g></svg>